<svg width="16" height="11" viewBox="0 0 16 11" fill="none" xmlns="http://www.w3.org/2000/svg">
<path d="M3.68945 8.67578C3.54492 8.19531 3.33398 7.54297 3.05664 6.71875C2.7793 5.89453 2.50586 5.12891 2.23633 4.42188C1.9707 3.71484 1.77539 3.27539 1.65039 3.10352L1.14062 3.0625C0.996094 2.62891 0.923828 2.26367 0.923828 1.9668C1.06055 1.62695 1.26562 1.36914 1.53906 1.19336C1.8125 1.01367 2.14453 0.923828 2.53516 0.923828C3.13672 0.923828 3.58984 1.18555 3.89453 1.70898C4.08594 2.03711 4.24805 2.44922 4.38086 2.94531C4.51758 3.4375 4.65039 4.03125 4.7793 4.72656C5.0332 6.05078 5.18945 7.15039 5.24805 8.02539L5.38281 8.00195C5.48438 7.7793 5.61328 7.32617 5.76953 6.64258C5.92578 5.95898 6.06055 5.25391 6.17383 4.52734C6.28711 3.79688 6.34375 3.24805 6.34375 2.88086L5.57031 2.76953C5.51562 2.57422 5.47656 2.4043 5.45312 2.25977C5.42969 2.11133 5.41602 1.95117 5.41211 1.7793C5.41211 1.76367 5.41211 1.74219 5.41211 1.71484C5.41602 1.6875 5.41602 1.6543 5.41211 1.61523C5.49805 1.51367 5.64062 1.4082 5.83984 1.29883C6.03906 1.18945 6.26953 1.09766 6.53125 1.02344C6.79688 0.949219 7.0625 0.912109 7.32812 0.912109C7.86328 0.912109 8.25586 1.04492 8.50586 1.31055C8.75586 1.57227 8.88086 1.97461 8.88086 2.51758C8.88086 2.89258 8.83008 3.33789 8.72852 3.85352C8.62695 4.36914 8.48438 4.90234 8.30078 5.45312C8.16797 5.85156 7.96875 6.34961 7.70312 6.94727C7.4375 7.54102 7.15234 8.11133 6.84766 8.6582C6.54688 9.20508 6.27539 9.61719 6.0332 9.89453C5.91992 9.96875 5.7832 10.0234 5.62305 10.0586C5.46289 10.0977 5.30273 10.1172 5.14258 10.1172C4.91992 10.1172 4.69141 10.0859 4.45703 10.0234C4.22656 9.96484 4.02148 9.88086 3.8418 9.77148C3.66602 9.66211 3.54297 9.53711 3.47266 9.39648L3.68945 8.67578ZM9.33203 8.7168C9.33203 8.51758 9.36914 8.31641 9.44336 8.11328C9.51758 7.91016 9.63281 7.71875 9.78906 7.53906C10.3594 7.78906 10.8555 7.98047 11.2773 8.11328C11.7031 8.24609 12.1406 8.3125 12.5898 8.3125C12.6719 8.3125 12.7559 8.30469 12.8418 8.28906C12.9316 8.27344 13.002 8.25195 13.0527 8.22461C13.0723 8.18164 13.0879 8.12695 13.0996 8.06055C13.1113 7.99023 13.1172 7.93359 13.1172 7.89062C13.1172 7.69922 13.0254 7.53516 12.8418 7.39844C12.6582 7.26172 12.416 7.125 12.1152 6.98828L11.9102 6.88867C11.3242 6.58789 10.8535 6.31836 10.498 6.08008C10.1465 5.83789 9.84766 5.52148 9.60156 5.13086C9.35938 4.73633 9.23828 4.25391 9.23828 3.68359C9.23828 2.84766 9.4707 2.17773 9.93555 1.67383C10.4043 1.16992 11.1484 0.917969 12.168 0.917969C13.0391 0.917969 13.7285 0.970703 14.2363 1.07617C14.4473 1.20117 14.6309 1.33203 14.7871 1.46875C14.9473 1.60156 15.0996 1.76367 15.2441 1.95508C15.2441 2.22852 15.2168 2.52539 15.1621 2.8457C15.1113 3.16211 15.0391 3.45312 14.9453 3.71875C14.8555 3.98438 14.7578 4.17578 14.6523 4.29297C14.5625 4.33594 14.4629 4.36914 14.3535 4.39258C14.2441 4.41211 14.1094 4.42188 13.9492 4.42188C13.7812 4.42188 13.6445 4.41016 13.5391 4.38672C13.4336 4.36328 13.3359 4.32422 13.2461 4.26953L13.0645 3.05078C12.8379 2.98828 12.5977 2.94336 12.3438 2.91602C12.0898 2.88477 11.918 2.87109 11.8281 2.875C11.6836 2.94141 11.584 3.03516 11.5293 3.15625C11.4785 3.27344 11.4531 3.41406 11.4531 3.57812C11.4531 3.75391 11.5 3.90625 11.5938 4.03516C11.6914 4.16016 11.8086 4.26367 11.9453 4.3457C12.082 4.42773 12.2578 4.51953 12.4727 4.62109L12.7305 4.75C13.2891 5.04297 13.7285 5.29883 14.0488 5.51758C14.3691 5.73633 14.6367 6.01367 14.8516 6.34961C15.0703 6.68164 15.1797 7.08398 15.1797 7.55664C15.1797 8.10742 15.0352 8.58203 14.7461 8.98047C14.457 9.375 14.0859 9.66016 13.6328 9.83594C13.3867 9.93359 13.1152 10.0039 12.8184 10.0469C12.5215 10.0898 12.1777 10.1113 11.7871 10.1113C11.5215 10.1113 11.2363 10.0781 10.9316 10.0117C10.627 9.94531 10.3301 9.82812 10.041 9.66016C9.75586 9.49219 9.52734 9.26758 9.35547 8.98633C9.33984 8.91211 9.33203 8.82227 9.33203 8.7168Z" fill="#026EC1"/>
</svg>
