<svg width="22" height="22" viewBox="0 0 22 22" fill="none" xmlns="http://www.w3.org/2000/svg">
<path d="M2.75 5.5H4.58333H19.25" stroke="#FF2F2F" stroke-width="2" stroke-linecap="round" stroke-linejoin="round"/>
<path d="M17.4166 5.50004V18.3334C17.4166 18.8196 17.2235 19.2859 16.8797 19.6297C16.5359 19.9736 16.0695 20.1667 15.5833 20.1667H6.41665C5.93042 20.1667 5.4641 19.9736 5.12028 19.6297C4.77647 19.2859 4.58331 18.8196 4.58331 18.3334V5.50004M7.33331 5.50004V3.66671C7.33331 3.18048 7.52647 2.71416 7.87028 2.37034C8.2141 2.02653 8.68042 1.83337 9.16665 1.83337H12.8333C13.3195 1.83337 13.7859 2.02653 14.1297 2.37034C14.4735 2.71416 14.6666 3.18048 14.6666 3.66671V5.50004" stroke="#FF2F2F" stroke-width="2" stroke-linecap="round" stroke-linejoin="round"/>
<path d="M9.16669 10.0834V15.5834" stroke="#FF2F2F" stroke-width="2" stroke-linecap="round" stroke-linejoin="round"/>
<path d="M12.8333 10.0834V15.5834" stroke="#FF2F2F" stroke-width="2" stroke-linecap="round" stroke-linejoin="round"/>
</svg>
