<svg width="20" height="20" viewBox="0 0 20 20" fill="none" xmlns="http://www.w3.org/2000/svg">
<path fill-rule="evenodd" clip-rule="evenodd" d="M11.5924 11.4138C10.1604 12.8457 7.83883 12.8457 6.40691 11.4138C4.97499 9.9819 4.97499 7.6603 6.40691 6.22837C7.83883 4.79645 10.1604 4.79645 11.5924 6.22837C13.0243 7.6603 13.0243 9.9819 11.5924 11.4138ZM12.0327 12.7968C10.0725 14.2962 7.25693 14.1495 5.4641 12.3566C3.51148 10.404 3.51148 7.23819 5.4641 5.28556C7.41672 3.33294 10.5825 3.33294 12.5352 5.28556C14.3279 7.07831 14.4747 9.89373 12.9755 11.8539L16.5422 15.4206L15.5994 16.3635L12.0327 12.7968Z" fill="#999999"/>
</svg>
